<svg xmlns="http://www.w3.org/2000/svg" xmlns:xlink="http://www.w3.org/1999/xlink"><defs><style>
    .sprite-symbol-usage {display: none;}
    .sprite-symbol-usage:target {display: inline;}
  </style><symbol viewBox="0 0 11.314 11.314" id="arrow_1"><path d="M5.657 11.314 0 5.657l.707-.707 4.95 4.95 4.95-4.95.707.707Z" fill="#808284" /></symbol><symbol viewBox="0 0 18 10" id="arrow_2"><path d="m12.5.137-.284.276a.46.46 0 0 0 0 .663l3.372 3.26H.482A.476.476 0 0 0 0 4.8v.4a.476.476 0 0 0 .482.469h15.1l-3.372 3.26a.46.46 0 0 0 0 .663l.284.276a.492.492 0 0 0 .682 0l4.68-4.531a.46.46 0 0 0 0-.663L13.179.137a.492.492 0 0 0-.679 0Z" /></symbol><symbol viewBox="0 0 8.227 15.36" id="i_facebook"><path d="m7.688 8.64.427-2.78H5.447v-1.8a1.39 1.39 0 0 1 1.567-1.5h1.213V.188A14.787 14.787 0 0 0 6.074 0a3.394 3.394 0 0 0-3.632 3.742V5.86H0v2.78h2.442v6.72h3.005V8.64Z" /></symbol><symbol viewBox="0 0 13.447 13.444" id="i_instagram"><path d="M6.723 13.445c-1.2 0-2.26-.018-2.773-.047a3.989 3.989 0 0 1-2.817-1.086A3.952 3.952 0 0 1 .047 9.494c-.062-1.115-.062-4.432 0-5.547A3.968 3.968 0 0 1 1.133 1.13 3.974 3.974 0 0 1 3.95.047C4.463.018 5.526 0 6.723 0S8.984.018 9.5.047a3.979 3.979 0 0 1 2.817 1.086A3.952 3.952 0 0 1 13.4 3.95c.063 1.114.063 4.43 0 5.544a3.976 3.976 0 0 1-1.086 2.817A3.952 3.952 0 0 1 9.5 13.4c-.517.027-1.579.045-2.777.045Zm0-1.211h1.176a9.525 9.525 0 0 0 2.783-.278 2.274 2.274 0 0 0 1.278-1.278 12.1 12.1 0 0 0 .28-3.478v-.957a12.105 12.105 0 0 0-.273-3.484 2.273 2.273 0 0 0-1.278-1.278A9.626 9.626 0 0 0 7.89 1.2H5.537a9.474 9.474 0 0 0-2.775.278 2.271 2.271 0 0 0-1.278 1.281 12.23 12.23 0 0 0-.273 3.493v.949a12.114 12.114 0 0 0 .273 3.485 2.275 2.275 0 0 0 1.278 1.278 9.687 9.687 0 0 0 2.807.277h.69Zm0-2.065a3.447 3.447 0 1 1 3.446-3.447 3.451 3.451 0 0 1-3.443 3.447Zm0-5.688a2.241 2.241 0 1 0 2.24 2.241 2.244 2.244 0 0 0-2.237-2.241Zm3.587-.543a.8.8 0 1 1 .8-.8.8.8 0 0 1-.797.8Z" /></symbol><symbol viewBox="0 0 14 14" id="i_search"><path data-name="Combined Shape" d="M9.016 9.727a5.506 5.506 0 1 1 .66-.651L14 13.348l-.66.653ZM1 5.5A4.5 4.5 0 1 0 5.5 1 4.505 4.505 0 0 0 1 5.5Z" /></symbol><symbol viewBox="0 0 15.36 12.475" id="i_twitter"><path d="M13.781 3.109c.01.136.01.273.01.409a8.9 8.9 0 0 1-8.957 8.957A8.9 8.9 0 0 1 0 11.062a6.512 6.512 0 0 0 .76.039 6.3 6.3 0 0 0 3.908-1.345 3.154 3.154 0 0 1-2.943-2.183 3.97 3.97 0 0 0 .595.049 3.329 3.329 0 0 0 .828-.107 3.148 3.148 0 0 1-2.524-3.09v-.039a3.17 3.17 0 0 0 1.423.4A3.153 3.153 0 0 1 1.072.575a8.948 8.948 0 0 0 6.491 3.294 3.554 3.554 0 0 1-.078-.721A3.151 3.151 0 0 1 12.933.994a6.2 6.2 0 0 0 2-.76 3.14 3.14 0 0 1-1.384 1.735 6.311 6.311 0 0 0 1.813-.487 6.767 6.767 0 0 1-1.581 1.627Z" /></symbol><symbol viewBox="0 0 112.05 21.222" id="logo"><path d="M55.458 21.222A10.283 10.283 0 0 1 52 20.655a8.7 8.7 0 0 1-2.97-1.836l3-3.294a4.394 4.394 0 0 0 1.633 1.337 4.684 4.684 0 0 0 2.037.472 4.634 4.634 0 0 0 1.04-.122 3.4 3.4 0 0 0 .945-.365 2.047 2.047 0 0 0 .675-.621 1.555 1.555 0 0 0 .257-.891 1.623 1.623 0 0 0-.661-1.363 6.125 6.125 0 0 0-1.66-.851 49.208 49.208 0 0 0-2.16-.7 9.745 9.745 0 0 1-2.16-.945 5.229 5.229 0 0 1-1.66-1.566 4.5 4.5 0 0 1-.662-2.565 5.768 5.768 0 0 1 .608-2.7 5.884 5.884 0 0 1 1.62-1.944 7.075 7.075 0 0 1 2.334-1.175 9.6 9.6 0 0 1 2.727-.392 10.772 10.772 0 0 1 3.132.459A7.257 7.257 0 0 1 62.8 3.134l-2.887 3.157a3.012 3.012 0 0 0-1.39-.959 5.007 5.007 0 0 0-1.66-.31 4.371 4.371 0 0 0-.946.112 3.639 3.639 0 0 0-.917.334 2.01 2.01 0 0 0-.7.607 1.545 1.545 0 0 0-.27.918 1.528 1.528 0 0 0 .648 1.323 6.165 6.165 0 0 0 1.633.783c.654.215 1.367.433 2.119.648a8.774 8.774 0 0 1 2.119.918 5.041 5.041 0 0 1 1.633 1.593 4.877 4.877 0 0 1 .648 2.673 6.174 6.174 0 0 1-.594 2.781 5.669 5.669 0 0 1-1.606 1.971 6.868 6.868 0 0 1-2.35 1.161 10.369 10.369 0 0 1-2.822.378Zm-50.814-.488H0L8.262 1.62h3.483l8.315 19.114h-4.751l-1.647-4.05H6.237l-1.593 4.05ZM9.882 7.182l-2.322 5.94h4.671Zm26.973 13.552H29.97V1.62h6.318a18.117 18.117 0 0 1 4.361.514 10.024 10.024 0 0 1 3.6 1.66A8.171 8.171 0 0 1 46.7 6.777a10.05 10.05 0 0 1 .9 4.455 9.132 9.132 0 0 1-.877 4.09 8.836 8.836 0 0 1-2.363 2.97 10.493 10.493 0 0 1-3.429 1.823 13.378 13.378 0 0 1-4.076.619ZM34.182 5.508v11.34h2.187a11.826 11.826 0 0 0 2.713-.3 5.825 5.825 0 0 0 2.174-.986 4.748 4.748 0 0 0 1.444-1.805 6.445 6.445 0 0 0 .527-2.74 5.368 5.368 0 0 0-.527-2.444 4.908 4.908 0 0 0-1.417-1.714 6.233 6.233 0 0 0-2.092-1.012 9.335 9.335 0 0 0-2.525-.338Zm-8.046 15.226h-4.212V1.62h4.212v19.114ZM67.527 5.834a2.263 2.263 0 0 0 1.661-.69 2.263 2.263 0 0 0 .69-1.661 2.263 2.263 0 0 0-.69-1.66 2.263 2.263 0 0 0-1.661-.689 2.263 2.263 0 0 0-1.66.689 2.263 2.263 0 0 0-.689 1.66 2.263 2.263 0 0 0 .689 1.661 2.263 2.263 0 0 0 1.66.69Z" fill="#e31837" /><path data-name="Path" d="M69.552 20.736V7.614h-4.05v13.122ZM76.518 20.736v-6.534a9.191 9.191 0 0 1 .081-1.242 3.09 3.09 0 0 1 .338-1.07 1.932 1.932 0 0 1 .742-.756 2.5 2.5 0 0 1 1.269-.28 1.929 1.929 0 0 1 1.2.324 1.934 1.934 0 0 1 .621.837 3.705 3.705 0 0 1 .243 1.121q.041.607.04 1.174v6.426h4.05V13.5a14.968 14.968 0 0 0-.189-2.457 5.3 5.3 0 0 0-.716-1.971 3.592 3.592 0 0 0-1.469-1.31 5.578 5.578 0 0 0-2.484-.472 4.617 4.617 0 0 0-1.35.189 4.786 4.786 0 0 0-1.107.486 3.927 3.927 0 0 0-.837.675 3.282 3.282 0 0 0-.54.756h-.054V7.614h-3.888v13.122ZM93.42 20.736v-9.882h3v-3.24h-3V5.535a2.252 2.252 0 0 1 .486-1.715 2.185 2.185 0 0 1 1.458-.42 3.059 3.059 0 0 1 .675.067 4.762 4.762 0 0 1 .648.2l.189-3.424a8.218 8.218 0 0 0-1.161-.189Q95.121 0 94.497 0a7.066 7.066 0 0 0-2.656.418 3.57 3.57 0 0 0-1.553 1.148 4.139 4.139 0 0 0-.729 1.688 10.527 10.527 0 0 0-.189 2.039v2.321h-2.673v3.24h2.673v9.882Z" /><path data-name="Combined Shape" d="M104.76 21.06a8.309 8.309 0 0 1-2.848-.486 6.888 6.888 0 0 1-2.322-1.391 6.556 6.556 0 0 1-1.553-2.173 6.906 6.906 0 0 1-.567-2.835 6.906 6.906 0 0 1 .567-2.835 6.556 6.556 0 0 1 1.552-2.173 6.888 6.888 0 0 1 2.323-1.391 8.309 8.309 0 0 1 2.848-.486 8.309 8.309 0 0 1 2.849.486 6.888 6.888 0 0 1 2.321 1.391 6.556 6.556 0 0 1 1.553 2.173 6.906 6.906 0 0 1 .567 2.835 6.906 6.906 0 0 1-.567 2.835 6.556 6.556 0 0 1-1.552 2.174 6.888 6.888 0 0 1-2.322 1.391 8.309 8.309 0 0 1-2.849.485Zm0-10.206a3.109 3.109 0 0 0-2.39.918 3.41 3.41 0 0 0-.85 2.4 3.41 3.41 0 0 0 .85 2.4 3.109 3.109 0 0 0 2.39.918 3.109 3.109 0 0 0 2.389-.918 3.41 3.41 0 0 0 .851-2.4 3.41 3.41 0 0 0-.851-2.4 3.109 3.109 0 0 0-2.389-.918Z" /></symbol><symbol viewBox="0 0 101.965 19.312" id="logo_footer"><path d="M50.467 19.312a9.363 9.363 0 0 1-3.145-.516 7.9 7.9 0 0 1-2.7-1.671l2.727-3a3.994 3.994 0 0 0 1.487 1.216 4.175 4.175 0 0 0 2.8.319 3.116 3.116 0 0 0 .86-.331 1.867 1.867 0 0 0 .615-.565 1.416 1.416 0 0 0 .233-.811 1.478 1.478 0 0 0-.6-1.241 5.559 5.559 0 0 0-1.511-.774 47.823 47.823 0 0 0-1.965-.639 8.843 8.843 0 0 1-1.968-.857 4.746 4.746 0 0 1-1.511-1.426 4.093 4.093 0 0 1-.6-2.334 5.247 5.247 0 0 1 .553-2.457 5.344 5.344 0 0 1 1.474-1.769 6.45 6.45 0 0 1 2.12-1.068 8.741 8.741 0 0 1 2.482-.356 9.81 9.81 0 0 1 2.849.418 6.6 6.6 0 0 1 2.482 1.4l-2.628 2.875a2.74 2.74 0 0 0-1.265-.872 4.567 4.567 0 0 0-1.511-.283 4.03 4.03 0 0 0-.86.1 3.31 3.31 0 0 0-.835.308 1.821 1.821 0 0 0-.639.553 1.406 1.406 0 0 0-.246.835 1.393 1.393 0 0 0 .59 1.2 5.645 5.645 0 0 0 1.487.713c.584.192 1.232.39 1.929.589a7.937 7.937 0 0 1 1.929.835 4.577 4.577 0 0 1 1.487 1.45 4.434 4.434 0 0 1 .59 2.432 5.613 5.613 0 0 1-.541 2.531 5.151 5.151 0 0 1-1.462 1.794 6.244 6.244 0 0 1-2.138 1.057 9.43 9.43 0 0 1-2.569.345Zm-46.24-.441H0L7.519 1.474h3.169l7.567 17.395h-4.324l-1.5-3.685H5.675L4.226 18.87ZM8.993 6.532 6.88 11.941h4.25ZM33.538 18.87h-6.265V1.474h5.749a16.474 16.474 0 0 1 3.968.467 9.14 9.14 0 0 1 3.28 1.511 7.434 7.434 0 0 1 2.223 2.715 9.137 9.137 0 0 1 .824 4.054 8.315 8.315 0 0 1-.8 3.722 8.049 8.049 0 0 1-2.15 2.7 9.557 9.557 0 0 1-3.12 1.659 12.2 12.2 0 0 1-3.709.568ZM31.106 5.013v10.319H33.1a10.779 10.779 0 0 0 2.47-.271 5.291 5.291 0 0 0 1.977-.9 4.321 4.321 0 0 0 1.315-1.646 5.869 5.869 0 0 0 .479-2.494 4.886 4.886 0 0 0-.479-2.224 4.469 4.469 0 0 0-1.29-1.56 5.667 5.667 0 0 0-1.9-.922 8.481 8.481 0 0 0-2.3-.307ZM23.783 18.87h-3.832V1.474h3.832v17.4ZM61.45 5.307a2.059 2.059 0 0 0 1.511-.627 2.059 2.059 0 0 0 .627-1.511 2.059 2.059 0 0 0-.627-1.51 2.059 2.059 0 0 0-1.511-.627 2.059 2.059 0 0 0-1.511.627 2.059 2.059 0 0 0-.627 1.511 2.059 2.059 0 0 0 .627 1.511 2.059 2.059 0 0 0 1.511.626Z" fill="#e31837" /><path data-name="Path" d="M63.292 18.87V6.929h-3.685V18.87ZM69.632 18.87v-5.946a8.363 8.363 0 0 1 .074-1.13 2.812 2.812 0 0 1 .307-.971 1.758 1.758 0 0 1 .675-.689 2.275 2.275 0 0 1 1.158-.257 1.756 1.756 0 0 1 1.093.295 1.76 1.76 0 0 1 .565.762 3.372 3.372 0 0 1 .221 1.02q.037.553.037 1.069v5.848h3.684v-6.586a13.621 13.621 0 0 0-.172-2.236 4.82 4.82 0 0 0-.651-1.794 3.269 3.269 0 0 0-1.34-1.191 5.076 5.076 0 0 0-2.261-.43 4.2 4.2 0 0 0-1.228.172 4.355 4.355 0 0 0-1.008.442 3.574 3.574 0 0 0-.762.614 2.987 2.987 0 0 0-.491.688h-.049V6.929h-3.538V18.87ZM85.012 18.87V9.877h2.727V6.929h-2.727V5.037a2.049 2.049 0 0 1 .442-1.56 1.988 1.988 0 0 1 1.327-.377 2.784 2.784 0 0 1 .614.061 4.334 4.334 0 0 1 .59.184l.172-3.124A7.479 7.479 0 0 0 87.1.049Q86.56 0 85.994 0a6.43 6.43 0 0 0-2.42.381 3.249 3.249 0 0 0-1.412 1.044 3.766 3.766 0 0 0-.668 1.536 9.58 9.58 0 0 0-.172 1.855v2.113h-2.428v2.948h2.432v8.993Z" /><path data-name="Combined Shape" d="M95.332 19.165a7.574 7.574 0 0 1-2.592-.442 6.28 6.28 0 0 1-2.113-1.265 5.973 5.973 0 0 1-1.413-1.979 6.286 6.286 0 0 1-.516-2.58 6.284 6.284 0 0 1 .516-2.579 5.973 5.973 0 0 1 1.413-1.979 6.28 6.28 0 0 1 2.113-1.265 7.574 7.574 0 0 1 2.592-.442 7.574 7.574 0 0 1 2.592.442 6.28 6.28 0 0 1 2.113 1.265 5.988 5.988 0 0 1 1.413 1.978 6.284 6.284 0 0 1 .516 2.579 6.286 6.286 0 0 1-.516 2.58 5.988 5.988 0 0 1-1.413 1.978 6.28 6.28 0 0 1-2.113 1.265 7.574 7.574 0 0 1-2.592.444Zm0-9.287a2.828 2.828 0 0 0-2.174.835 3.1 3.1 0 0 0-.774 2.187 3.1 3.1 0 0 0 .774 2.186 2.828 2.828 0 0 0 2.174.835 2.828 2.828 0 0 0 2.174-.835 3.1 3.1 0 0 0 .774-2.186 3.1 3.1 0 0 0-.774-2.187 2.828 2.828 0 0 0-2.174-.835Z" /></symbol><symbol viewBox="0 0 84.56 15.96" id="logo_unaids"><defs></defs><path data-name="Fill 1" d="M21.695 1.12v8.2c0 1.663.832 3.818 3.365 3.818s3.365-2.153 3.365-3.818v-8.2h1.815v8.485a5.04 5.04 0 0 1-5.18 5.235 5.039 5.039 0 0 1-5.18-5.235V1.12Z" fill="#1d1d1b" /><path data-name="Fill 3" d="M32.2 1.12h2.413l7.47 11.048h.038V1.12h1.839v13.44h-2.337L34.077 3.512h-.038V14.56H32.2Z" fill="#1d1d1b" /><path data-name="Fill 5" d="M47.224 14.56H45.08l5.973-13.44h1.666l5.8 13.438H56.38l-1.363-3.32h-6.453l-1.339 3.322ZM51.78 3.473l-2.565 6.171h5.131l-2.527-6.17h-.039Z" fill="#dc062b" /><path data-name="Clip 8" d="M0 15.96h84.56V0H0Z" fill="none" /><g data-name="Group 41" clip-path="url(#logo_unaids_a)"><path data-name="Fill 7" d="M59.64 14.56h1.96V1.12h-1.96Z" fill="#dc062b" /><path data-name="Fill 9" d="M67.669 14.56H63.28V1.12h4.693a6.736 6.736 0 0 1 5.664 2.428 7.22 7.22 0 0 1 1.4 4.292 6.541 6.541 0 0 1-1.884 4.649 7.518 7.518 0 0 1-5.484 2.071ZM65.104 2.828v10.023h2.3c3.462 0 5.7-1.967 5.7-5.012a5.448 5.448 0 0 0-.993-3.146 4.984 4.984 0 0 0-4.27-1.865Z" fill="#dc062b" /><path data-name="Fill 10" d="M77.1 11.934a3.341 3.341 0 0 0 2.848 1.459 2.5 2.5 0 0 0 2.676-2.265C82.624 7.999 76 9.94 76 4.64c0-1.592 1.327-3.8 4.554-3.8a4.623 4.623 0 0 1 3.873 1.555l-1.481 1.363a2.811 2.811 0 0 0-2.392-1.19c-2.012 0-2.619 1.229-2.619 2.073 0 3.436 6.625 1.382 6.625 6.276 0 2.63-2.088 4.2-4.67 4.2a5.135 5.135 0 0 1-4.29-1.877Z" fill="#dc062b" /><path data-name="Fill 11" d="M4.48 1.68a12.593 12.593 0 0 1-.971 1.171c-.343.338-1.029.675-1.269 1.069a2.564 2.564 0 0 1 1.006-1.61 6.839 6.839 0 0 1 1.234-.63" fill="#1d1d1b" /><path data-name="Fill 12" d="M1.505 5.6a5.947 5.947 0 0 1-.033-1.691 2.608 2.608 0 0 1 .88-1.389 4.109 4.109 0 0 0-.361 1.467 4.413 4.413 0 0 1-.237.784 2.347 2.347 0 0 1 .893-1.075c.5-.336.768-.526.994-.705C3.2 4.391 2.194 4.234 1.505 5.6" fill="#1d1d1b" /><path data-name="Fill 13" d="M1.155 7.84C1.11 7.277.681 6.76.591 5.951a2.429 2.429 0 0 1 .44-2.031 4.772 4.772 0 0 0 .1 1.784 10.246 10.246 0 0 1 .012 1.2 1.937 1.937 0 0 1 .587-1.376 2.775 2.775 0 0 0 .79-1.008c.011 1.524-1.219 1.5-1.365 3.32" fill="#1d1d1b" /><path data-name="Fill 14" d="M1.48 9.8C1.236 9.169.6 8.68.345 8.161A2.433 2.433 0 0 1 .218 5.88 3.694 3.694 0 0 0 .8 7.807a9.593 9.593 0 0 1 .456 1.229 2.74 2.74 0 0 1 .085-1.55c.259-.665.49-.831.553-1.106.329 1.572-.69 2.06-.413 3.422" fill="#1d1d1b" /><path data-name="Fill 15" d="M2.52 11.76c-.438-.46-1.242-.777-1.68-1.36A3.514 3.514 0 0 1 0 8.423c.154.411.911 1.029 1.218 1.372a7.371 7.371 0 0 1 .757 1.2 2.759 2.759 0 0 1-.2-1.337A11.538 11.538 0 0 0 2.011 8.4a2.486 2.486 0 0 1 .343 1.44 2.668 2.668 0 0 0 .166 1.92" fill="#1d1d1b" /><path data-name="Fill 16" d="M3.92 13.16c-.821-.442-1.653-.478-2.129-.86A2.846 2.846 0 0 1 .56 10.463 3.508 3.508 0 0 0 2.112 11.7a5.061 5.061 0 0 1 1.087.848 2.3 2.3 0 0 1-.654-1.36c-.1-.818.055-.935-.085-1.388a2.59 2.59 0 0 1 .7 1.407 2.71 2.71 0 0 0 .76 1.953" fill="#1d1d1b" /><path data-name="Fill 17" d="M5.32 14c-.826-.187-1.687-.022-2.338-.263A3.356 3.356 0 0 1 1.4 12.422a3.9 3.9 0 0 0 1.989.8 4.822 4.822 0 0 1 1.489.5 3.664 3.664 0 0 1-.931-1.194c-.198-.555-.081-.719-.337-1.048a3.349 3.349 0 0 1 1.035 1.117c.325.581.36.932.675 1.4" fill="#1d1d1b" /><path data-name="Fill 18" d="M13.44 1.68a11.036 11.036 0 0 0 .978 1.171c.329.338 1.022.675 1.262 1.069a2.566 2.566 0 0 0-1.013-1.61 6.417 6.417 0 0 0-1.227-.63" fill="#1d1d1b" /><path data-name="Fill 19" d="M16.423 5.6a5.992 5.992 0 0 0 .024-1.691 2.7 2.7 0 0 0-.874-1.389 3.882 3.882 0 0 1 .351 1.467 5.887 5.887 0 0 0 .238.784 2.252 2.252 0 0 0-.882-1.075c-.5-.336-.785-.526-1-.705.442 1.4 1.451 1.243 2.143 2.609" fill="#1d1d1b" /><path data-name="Fill 20" d="M16.491 7.84c.034-.563.476-1.08.554-1.889a2.377 2.377 0 0 0-.441-2.031 4.549 4.549 0 0 1-.1 1.784c-.011.247-.033.8-.011 1.2a1.967 1.967 0 0 0-.58-1.376 2.518 2.518 0 0 1-.793-1.008c-.023 1.524 1.224 1.5 1.371 3.32" fill="#1d1d1b" /><path data-name="Fill 21" d="M16.156 9.8c.244-.631.892-1.12 1.147-1.639a2.452 2.452 0 0 0 .117-2.281 3.591 3.591 0 0 1-.574 1.927 8.222 8.222 0 0 0-.455 1.229 2.847 2.847 0 0 0-.085-1.55c-.266-.665-.49-.831-.564-1.106-.318 1.572.7 2.06.414 3.422" fill="#1d1d1b" /><path data-name="Fill 22" d="M15.12 11.76c.437-.46 1.23-.777 1.68-1.36a3.608 3.608 0 0 0 .84-1.977 7.21 7.21 0 0 1-1.159 1.337 6.365 6.365 0 0 0-.816 1.235 2.908 2.908 0 0 0 .2-1.337c-.045-.424-.245-.892-.245-1.258a2.557 2.557 0 0 0-.334 1.44 2.74 2.74 0 0 1-.166 1.92" fill="#1d1d1b" /><path data-name="Fill 23" d="M13.72 13.16c.818-.442 1.647-.478 2.123-.86a2.834 2.834 0 0 0 1.237-1.837 3.5 3.5 0 0 1-1.547 1.237 5.092 5.092 0 0 0-1.1.848 2.3 2.3 0 0 0 .653-1.36 13.607 13.607 0 0 1 .093-1.388 2.492 2.492 0 0 0-.685 1.407 2.68 2.68 0 0 1-.774 1.953" fill="#1d1d1b" /><path data-name="Fill 24" d="M12.32 14c.835-.187 1.681-.022 2.331-.263a3.393 3.393 0 0 0 1.589-1.315 3.952 3.952 0 0 1-1.994.8 4.617 4.617 0 0 0-1.473.5 3.49 3.49 0 0 0 .917-1.194c.207-.555.08-.719.346-1.048a3.519 3.519 0 0 0-1.043 1.117c-.325.583-.348.932-.673 1.403" fill="#1d1d1b" /><path data-name="Fill 25" d="m11.517 5.196.063.065.143-.054-.097-.108Z" fill="#1d1d1b" /><path data-name="Fill 26" d="m11.48 5.493.136-.173h.046l.1.14-.123.024.076.083-.114.033Z" fill="#1d1d1b" /><path data-name="Fill 27" d="m11.254 5.74.172.075-.108-.15Z" fill="#1d1d1b" /><path data-name="Fill 28" d="m12.718 5.84-.1.107.036.187.194.026-.076-.187.087-.16-.108-.213Z" fill="#1d1d1b" /><path data-name="Fill 29" d="m5.988 7.674-.065.07v.087l.118.009.076-.1v-.11l-.129-.07Z" fill="#1d1d1b" /><path data-name="Fill 30" d="m5.955 8.056.125.042-.006-.158-.076-.078Z" fill="#1d1d1b" /><path data-name="Fill 31" d="M7.784.374A4.789 4.789 0 0 0 6.72 2.8a2.886 2.886 0 0 1 2.215-1.356 2.952 2.952 0 0 1 2.265 1.35 4.244 4.244 0 0 0-1.108-2.42A1.845 1.845 0 0 0 8.935 0a1.81 1.81 0 0 0-1.151.374" fill="#dc062b" /><path data-name="Fill 32" d="M10.16 6.531a6.18 6.18 0 0 0 1.03-3.106A2.943 2.943 0 0 0 9.802 1.96a5.954 5.954 0 0 1-.768 2.439S8.061 6.314 7.732 6.86 5.32 11.153 5.32 11.153l.9 2.567a450.464 450.464 0 0 0 3.94-7.189" fill="#dc062b" /><path data-name="Fill 33" d="M5.252 12.32a6.332 6.332 0 0 1 1.55-11.2 2.151 2.151 0 0 0-.082.181 6.014 6.014 0 0 0-2.23 1.412l.765.774.138-.13.178-.158.189-.158.2-.146.2-.124.122-.072a2.877 2.877 0 0 1-.022.107l-.056.032-.2.123-.2.147-.178.146-.177.158-.138.131.876.886.085-.094.033-.03c0 .012.005.024.008.037l.012.054-.08.091.135.134.014.043.044.129-.249-.25-.106.106-.111.135-.112.136-.1.146-.089.146-.089.157-.077.157-.078.158-.067.169-.056.167-.044.169-.045.18-.032.179-.022.181-.013.191-.007.123h.579l.041-.067.159-.134.167-.146.1-.09.066-.113.139-.065.017-.059.045-.124.045-.113.044-.1.05-.112.057-.1.07-.1.06-.087a.426.426 0 0 0 .02.04.36.36 0 0 1 .017.034l-.037.055-.06.094-.056.1-.056.113-.044.1-.044.112-.023.077.29-.2.179-.116c.077.166.157.323.25.505l.069.136c-.082.144-.168.3-.259.463-.11.2-.223.4-.348.622l-.168-.024h-.051l.023.078.038.111.036.077-.031.053-.015.025-.056-.122-.045-.112-.03-.112h-.097l.012-.18-.045-.168.058-.029V7.36l-.012-.123v-.1l-.009-.017h-.215l-.089.168H5.86l.012.1-.112.1-.023.192-.117.062-.033.169.178.157-.022.259.1.045.022.237-.1.1.2.192.022.112-.432.759-.335.589-.072-.031-.118.049.074.085.032.034-.041.072-.047-.05-.156-.18-.066-.085-.324-.028-.055-.394-.167-.123-.145.023-.289-.192.045-.179-.257-.259-.214-.056-.107-.146-.093.078.078.226-.19-.078.023-.169-.011-.192.156-.18.233.044.234-.146.194.031-.039-.143-.051-.252-.045-.248-.033-.242-.022-.258V7.12H2.66a6.152 6.152 0 0 0 1.76 4.309l.445-.45-.058.1.018.05-.349.353a6.132 6.132 0 0 0 .695.6l.084.234ZM4.17 8.495l.233.067-.044-.142.067-.157.023-.2.289-.258.056-.1.156-.08.122.124.042-.013-.009-.055-.023-.18-.011-.192-.011-.189H3.82v.24l.022.258.033.248.045.247.055.237.044.162.146-.016Zm.968-1.375.01.168.012.192.023.18.009.052.123.094.134-.1.1-.2.023-.257.099-.129Zm.116-3.526-.15.152-.156.18-.145.194-.133.2-.133.2-.122.2-.1.214-.1.225-.095.232-.077.237-.067.236-.056.236-.045.248-.033.247-.022.259v.191h1.243l.008-.125.011-.191.023-.192.033-.18.045-.18.044-.18.055-.18.067-.168.078-.158.077-.171.1-.158.088-.142.1-.146.112-.147.122-.135.105-.106Zm-.821-.83a6.172 6.172 0 0 0-1.771 4.281h1.085v-.191l.022-.259.077-.507.056-.247.067-.236.078-.237.088-.236.1-.226.111-.212.122-.214.134-.2.133-.2.156-.192.156-.191.15-.151-.765-.774Z" fill="#1d1d1b" /><path data-name="Fill 34" d="M8.839 13.44a6.737 6.737 0 0 1-2.119-.341l.038-.065.035-.059a6.591 6.591 0 0 0 2 .325v-1.057h-.22l-.264-.023-.266-.032-.253-.044-.254-.055-.188-.052.021-.036.021-.036.17.046.254.056.241.043.265.033.254.011.219.009v-1.225h-.151l-.2-.011-.2-.023-.212-.044.034-.04.017-.028.193.039.185.022.184.012h.149v-.214l-.16.057-.242-.044-.242.032.189-.331.414-.72h.041v-.06l.014-.025.025-.04.022.038.02.035v.053h.035c.253.434.678 1.169 1.3 2.247l-.1.011-.038-.084-.115-.021-.08-.122-.355-.213v-.2l.092-.033.008-.172-.2-.153-.188.022-.2.011h-.159v1.225l.23-.01.253-.011.264-.033.242-.043.258-.056.137-.04.041.073-.156.044-.253.055-.254.044-.267.033-.265.023h-.23V13.3a6.582 6.582 0 0 0 1.975-.313l.072.124a6.731 6.731 0 0 1-2.081.329Zm.23-2.885-.2.068v.238h.161l.19-.011.137-.016-.057-.071-.23-.208Z" fill="#1d1d1b" /><path data-name="Fill 35" d="m12.42 12.32.083-.233a6.04 6.04 0 0 0 .672-.584l-.339-.346.012-.037-.036-.064-.059-.1.479.488a6.183 6.183 0 0 0 1.748-4.316h-1.083v.248l-.021.259-.034.247-.044.248-.056.248-.067.248-.077.236-.088.226-.1.225-.111.227-.122.2-.132.213-.133.192-.155.2-.156.18-.057.062-.041-.067.043-.047.155-.18.144-.192.133-.192.133-.2.122-.214.1-.214.1-.226.088-.225.077-.226.062-.248.061-.236.039-.249.038-.251.022-.258v-.234h-1.23l-.011.179-.011.193-.023.18-.033.192-.044.181-.043.167-.056.181-.067.169-.077.169-.078.157-.1.158-.087.159-.1.146-.014.017-.046-.081.094-.128.088-.158.088-.147.077-.158.078-.169.067-.169.055-.169.045-.169.044-.18.033-.181.022-.18.012-.192.01-.168h-1.02l.033.27.078.045-.011.18.044.079.066-.135.133.012.044.089.2.045.012.091-.3.158-.134.01.011.08-.166.078h-.121l-.122.232-.595-1.065c-.105-.194-.211-.376-.305-.545.087-.186.173-.359.256-.526.1-.2.2-.4.278-.578l.046.073.02.03.024.027.288-.011.122.113-.012.18.122.033v.113l-.077.115.112.023.088-.136.2-.067.055.214-.077.112.077.057.222-.113.111-.236.132.023-.187.344-.144.193-.168-.024-.077.157.044.056-.077.091-.112-.011-.048.044h.931l-.007-.127-.012-.19-.005-.047-.016.1-.156-.023c0-.007.056-.263.067-.349s.023-.147.023-.147l-.1-.4-.006-.02-.02-.05-.2-.118-.121-.227.065-.189-.142.032-.119-.216V4.871l-.161-.033-.127-.218-.041-.049-.2.2c.018-.053.038-.113.053-.166l.1-.1-.024-.016-.035-.042a4.24 4.24 0 0 0 .081-.394l.133.165.05.085.211-.214-.084-.1-.121.057a.282.282 0 0 0-.1-.091h-.014c-.039 0-.065.067-.072.087.01-.063.02-.132.028-.211l.065-.111.006-.3-.053-.1a3.47 3.47 0 0 0-.054-.629l.078.059.125-.082.288.191-.11-.139-.144-.146.255.023.254.214-.11.056.233.383-.059.06.049.04.016.015.14.064.009.024.735-.748a5.661 5.661 0 0 0-2.159-1.401 1.5 1.5 0 0 0-.094-.184 6.212 6.212 0 0 1 3.015 2.258 6.374 6.374 0 0 1 1.2 3.737 6.351 6.351 0 0 1-2.7 5.2Zm.794-9.559-.761.774.147.149.01.012.068.023.092.175.141.175.009.013.146.055.189.349.222.181.143.181-.179.127.068.154.088.238.077.236.067.237.056.247.044.249.034.258.021.259v.192h1.082a6.2 6.2 0 0 0-1.764-4.284Zm-1.078 2.291.266.136-.066.214.176.3-.088.147.009.183.018.076.094.192-.021.126.021.111.023.193.011.19.007.124h1.234v-.188l-.022-.259-.038-.248-.044-.248-.056-.237-.067-.237-.077-.236-.088-.226-.033-.075v.153l-.1-.011-.122.068-.113-.146-.044-.168-.244-.293-.055.1-.171-.033-.023-.068-.154-.022-.209-.069-.089-.168-.267-.113-.036-.087-.137.14.029.047-.084.117.05.052.122.135.111.147.1.147.06.1.117-.065Z" fill="#1d1d1b" /><path data-name="Fill 36" d="M8.945 1.68h-.037v.189l-.223.011-.235.018-.05.007v.084h.026l.259-.028.222-.009v1.3h-.152l-.055.006.027.079h.18v.475l.043.112.039-.1v-.49h.189l.022-.076-.049-.006h-.163v-1.3l.233.01.256.024h.04v-.084h-.03l-.266-.022-.233-.01.002-.19h-.045" fill="#1d1d1b" /><path data-name="Fill 37" d="m11.649 13.72.951-2.58S11.06 8.544 10.152 7c-.298.532-.692 1.2-1.192 2.077.682 1.193 1.491 2.59 2.689 4.643" fill="#dc062b" /><path data-name="Fill 38" d="M7.99 1.96a3.535 3.535 0 0 0-1.531 1.486c-.1.632.184 1.492 1.02 2.994.209-.4.955-1.658 1.2-2.16a4.941 4.941 0 0 1-.689-2.32" fill="#dc062b" /><path data-name="Fill 39" d="M7.006 15.8c-.056.086.316.207.362.147 1.445-2.123 3.601-1.075 4.369-.847a2.247 2.247 0 0 0 2.823-.861 2.553 2.553 0 0 1-2.225.182 6.44 6.44 0 0 0-1.7-.414A4.148 4.148 0 0 0 7.006 15.8" fill="#1d1d1b" /><path data-name="Fill 40" d="M10.333 15.96c-.028 0-.047-.006-.054-.018a2.746 2.746 0 0 0-1.322-1.106 1.417 1.417 0 0 1 .512-.107c.052 0 .082.008.087.023a4.854 4.854 0 0 1 1.084 1.043v.037a.48.48 0 0 1-.307.128Zm-5.437-.683a2.163 2.163 0 0 1-1.816-1.035 2.284 2.284 0 0 0 1.223.358 3.409 3.409 0 0 0 .984-.174h.008c.092-.025.191-.06.306-.1a5.1 5.1 0 0 1 1.411-.315C7.118 14 7.213 14 7.308 14a3.637 3.637 0 0 1 1.456.3 2.61 2.61 0 0 0-.622.326c-.076 0-.153-.008-.228-.008a4.88 4.88 0 0 0-1.693.376 7.542 7.542 0 0 1-.316.11 3.4 3.4 0 0 1-1.009.173Z" fill="#1d1d1b" /></g></symbol><clipPath id="logo_unaids_a"><path data-name="Clip 8" d="M0 15.96h84.56V0H0Z" fill="none" /></clipPath><symbol viewBox="0 0 18.714 18.714" id="search"><path d="M17.913 18.714a.438.438 0 0 1-.311-.128l-4.715-4.715a.452.452 0 0 1-.128-.31v-.374a7.689 7.689 0 1 1 .424-.427h.377a.433.433 0 0 1 .311.128l4.715 4.712a.442.442 0 0 1 0 .622l-.362.362a.438.438 0 0 1-.311.13ZM7.6 1.17a6.433 6.433 0 1 0 6.435 6.43A6.44 6.44 0 0 0 7.6 1.17Z" /></symbol><symbol viewBox="0 0 15 17" id="slider"><path d="M12.589 17h-.535a.267.267 0 0 1-.268-.266V8.5h-1.34a.8.8 0 0 1-.8-.8V6.109a.8.8 0 0 1 .8-.8h1.339V.266A.267.267 0 0 1 12.054 0h.535a.267.267 0 0 1 .268.266v5.047H14.2a.8.8 0 0 1 .8.8V7.7a.8.8 0 0 1-.8.8h-1.343v8.235a.267.267 0 0 1-.268.265ZM10.715 6.375v1.063h3.214V6.375ZM7.768 17h-.536a.267.267 0 0 1-.268-.266v-2.922H5.625a.8.8 0 0 1-.8-.8v-1.59a.8.8 0 0 1 .8-.8h1.339V.266A.267.267 0 0 1 7.232 0h.535a.267.267 0 0 1 .268.266v10.36h1.34a.8.8 0 0 1 .8.8v1.594a.8.8 0 0 1-.8.8H8.036v2.922a.267.267 0 0 1-.268.258Zm-1.875-5.313v1.063h3.214v-1.063ZM2.947 17h-.536a.267.267 0 0 1-.268-.266V6.375H.8a.8.8 0 0 1-.8-.8V3.984a.8.8 0 0 1 .8-.8h1.343V.266A.267.267 0 0 1 2.411 0h.536a.267.267 0 0 1 .267.266v2.922h1.34a.8.8 0 0 1 .8.8v1.59a.8.8 0 0 1-.8.8h-1.34v10.36a.267.267 0 0 1-.267.262ZM1.071 4.25v1.063h3.215V4.25Z" /></symbol></defs><use id="arrow_1-usage" xlink:href="#arrow_1" class="sprite-symbol-usage" /><use id="arrow_2-usage" xlink:href="#arrow_2" class="sprite-symbol-usage" /><use id="i_facebook-usage" xlink:href="#i_facebook" class="sprite-symbol-usage" /><use id="i_instagram-usage" xlink:href="#i_instagram" class="sprite-symbol-usage" /><use id="i_search-usage" xlink:href="#i_search" class="sprite-symbol-usage" /><use id="i_twitter-usage" xlink:href="#i_twitter" class="sprite-symbol-usage" /><use id="logo-usage" xlink:href="#logo" class="sprite-symbol-usage" /><use id="logo_footer-usage" xlink:href="#logo_footer" class="sprite-symbol-usage" /><use id="logo_unaids-usage" xlink:href="#logo_unaids" class="sprite-symbol-usage" /><use id="search-usage" xlink:href="#search" class="sprite-symbol-usage" /><use id="slider-usage" xlink:href="#slider" class="sprite-symbol-usage" /></svg>