<svg xmlns="http://www.w3.org/2000/svg" width="13.447" height="13.444" viewBox="0 0 13.447 13.444">
  <path id="Shape" d="M6.723,13.445c-1.2,0-2.26-.018-2.773-.047a3.989,3.989,0,0,1-2.817-1.086A3.952,3.952,0,0,1,.047,9.494c-.062-1.115-.062-4.432,0-5.547A3.968,3.968,0,0,1,1.133,1.13,3.974,3.974,0,0,1,3.95.047C4.463.018,5.526,0,6.723,0S8.984.018,9.5.047a3.979,3.979,0,0,1,2.817,1.086A3.952,3.952,0,0,1,13.4,3.95c.063,1.114.063,4.43,0,5.544a3.976,3.976,0,0,1-1.086,2.817A3.952,3.952,0,0,1,9.5,13.4C8.983,13.427,7.921,13.445,6.723,13.445Zm0-1.211.476,0c.212,0,.453,0,.7,0a9.525,9.525,0,0,0,2.783-.278,2.274,2.274,0,0,0,1.278-1.278A12.1,12.1,0,0,0,12.24,7.2V7.193c0-.175,0-.334,0-.471s0-.3,0-.471V6.243a12.105,12.105,0,0,0-.273-3.484,2.273,2.273,0,0,0-1.278-1.278A9.626,9.626,0,0,0,7.89,1.2c-.248,0-.485,0-.695,0l-.47,0-.478,0c-.217,0-.459,0-.71,0a9.474,9.474,0,0,0-2.775.278A2.271,2.271,0,0,0,1.484,2.759a12.23,12.23,0,0,0-.273,3.493c0,.174,0,.333,0,.47s0,.3,0,.479a12.114,12.114,0,0,0,.273,3.485,2.275,2.275,0,0,0,1.278,1.278,9.687,9.687,0,0,0,2.807.277c.245,0,.479,0,.69,0Zm0-2.065a3.447,3.447,0,1,1,3.446-3.447A3.451,3.451,0,0,1,6.726,10.169Zm0-5.688a2.241,2.241,0,1,0,2.24,2.241A2.244,2.244,0,0,0,6.726,4.481Zm3.587-.543a.8.8,0,1,1,.8-.8A.8.8,0,0,1,10.313,3.938Z" transform="translate(0 0)"/>
</svg>
