<svg xmlns="http://www.w3.org/2000/svg" width="15" height="17" viewBox="0 0 15 17">
  <path id="Shape" d="M12.589,17h-.535a.267.267,0,0,1-.268-.266V8.5H10.446a.8.8,0,0,1-.8-.8V6.109a.8.8,0,0,1,.8-.8h1.339V.266A.267.267,0,0,1,12.054,0h.535a.267.267,0,0,1,.268.266V5.313H14.2a.8.8,0,0,1,.8.8V7.7a.8.8,0,0,1-.8.8H12.857v8.235A.267.267,0,0,1,12.589,17ZM10.715,6.375V7.438h3.214V6.375ZM7.768,17H7.232a.267.267,0,0,1-.268-.266V13.812H5.625a.8.8,0,0,1-.8-.8V11.422a.8.8,0,0,1,.8-.8H6.964V.266A.267.267,0,0,1,7.232,0h.535a.267.267,0,0,1,.268.266v10.36H9.375a.8.8,0,0,1,.8.8v1.594a.8.8,0,0,1-.8.8H8.036v2.922A.267.267,0,0,1,7.768,17ZM5.893,11.687V12.75H9.107V11.687ZM2.947,17H2.411a.267.267,0,0,1-.268-.266V6.375H.8a.8.8,0,0,1-.8-.8V3.984a.8.8,0,0,1,.8-.8H2.143V.266A.267.267,0,0,1,2.411,0h.536a.267.267,0,0,1,.267.266V3.188h1.34a.8.8,0,0,1,.8.8V5.578a.8.8,0,0,1-.8.8H3.214v10.36A.267.267,0,0,1,2.947,17ZM1.071,4.25V5.313H4.286V4.25Z" transform="translate(0 0)"/>
</svg>
