<svg xmlns="http://www.w3.org/2000/svg" width="15.36" height="12.475" viewBox="0 0 15.36 12.475">
  <path id="Path" d="M13.781,3.109c.01.136.01.273.01.409a8.9,8.9,0,0,1-8.957,8.957A8.9,8.9,0,0,1,0,11.062a6.512,6.512,0,0,0,.76.039A6.3,6.3,0,0,0,4.668,9.756,3.154,3.154,0,0,1,1.725,7.573a3.97,3.97,0,0,0,.595.049,3.329,3.329,0,0,0,.828-.107A3.148,3.148,0,0,1,.624,4.425V4.386a3.17,3.17,0,0,0,1.423.4A3.153,3.153,0,0,1,1.072.575,8.948,8.948,0,0,0,7.563,3.869a3.554,3.554,0,0,1-.078-.721A3.151,3.151,0,0,1,12.933.994a6.2,6.2,0,0,0,2-.76,3.14,3.14,0,0,1-1.384,1.735,6.311,6.311,0,0,0,1.813-.487A6.767,6.767,0,0,1,13.781,3.109Z" transform="translate(0 0)"/>
</svg>
