<svg id="Group_3" data-name="Group 3" xmlns="http://www.w3.org/2000/svg" width="112.05" height="21.222" viewBox="0 0 112.05 21.222">
  <path id="AIDS" d="M55.458,20.088A10.283,10.283,0,0,1,52,19.521a8.7,8.7,0,0,1-2.97-1.836l3-3.294a4.394,4.394,0,0,0,1.633,1.337A4.684,4.684,0,0,0,55.7,16.2a4.634,4.634,0,0,0,1.04-.122,3.4,3.4,0,0,0,.945-.365,2.047,2.047,0,0,0,.675-.621,1.555,1.555,0,0,0,.257-.891,1.623,1.623,0,0,0-.661-1.363,6.125,6.125,0,0,0-1.66-.851c-.663-.233-1.39-.469-2.16-.7a9.745,9.745,0,0,1-2.16-.945,5.229,5.229,0,0,1-1.66-1.566,4.5,4.5,0,0,1-.662-2.565,5.768,5.768,0,0,1,.608-2.7,5.884,5.884,0,0,1,1.62-1.944A7.075,7.075,0,0,1,54.216.392,9.6,9.6,0,0,1,56.943,0a10.772,10.772,0,0,1,3.132.459A7.257,7.257,0,0,1,62.8,2L59.913,5.157a3.012,3.012,0,0,0-1.39-.959,5.007,5.007,0,0,0-1.66-.31A4.371,4.371,0,0,0,55.917,4,3.639,3.639,0,0,0,55,4.334a2.01,2.01,0,0,0-.7.607,1.545,1.545,0,0,0-.27.918,1.528,1.528,0,0,0,.648,1.323,6.165,6.165,0,0,0,1.633.783c.654.215,1.367.433,2.119.648a8.774,8.774,0,0,1,2.119.918,5.041,5.041,0,0,1,1.633,1.593,4.877,4.877,0,0,1,.648,2.673,6.174,6.174,0,0,1-.594,2.781,5.669,5.669,0,0,1-1.606,1.971A6.868,6.868,0,0,1,58.28,19.71,10.369,10.369,0,0,1,55.458,20.088ZM4.644,19.6H0L8.262.486h3.483L20.06,19.6H15.309l-1.647-4.05H6.237L4.644,19.6ZM9.882,6.048,7.56,11.988h4.671ZM36.855,19.6H29.97V.486h6.318A18.117,18.117,0,0,1,40.649,1a10.024,10.024,0,0,1,3.6,1.66A8.171,8.171,0,0,1,46.7,5.643a10.05,10.05,0,0,1,.9,4.455,9.132,9.132,0,0,1-.877,4.09,8.836,8.836,0,0,1-2.363,2.97,10.493,10.493,0,0,1-3.429,1.823A13.378,13.378,0,0,1,36.855,19.6ZM34.182,4.374v11.34h2.187a11.826,11.826,0,0,0,2.713-.3,5.825,5.825,0,0,0,2.174-.986A4.748,4.748,0,0,0,42.7,12.623a6.445,6.445,0,0,0,.527-2.74A5.368,5.368,0,0,0,42.7,7.439a4.908,4.908,0,0,0-1.417-1.714,6.233,6.233,0,0,0-2.092-1.012,9.335,9.335,0,0,0-2.525-.338ZM26.136,19.6H21.924V.486h4.212V19.6Z" transform="translate(0 1.134)" fill="#e31837"/>
  <path id="Path" d="M2.349,4.7A2.263,2.263,0,0,0,4.01,4.01,2.263,2.263,0,0,0,4.7,2.349,2.263,2.263,0,0,0,4.01.689,2.263,2.263,0,0,0,2.349,0,2.263,2.263,0,0,0,.689.689,2.263,2.263,0,0,0,0,2.349,2.263,2.263,0,0,0,.689,4.01,2.263,2.263,0,0,0,2.349,4.7Z" transform="translate(65.178 1.134)" fill="#e31837"/>
  <path id="Path-2" data-name="Path" d="M4.05,13.122V0H0V13.122Z" transform="translate(65.502 7.614)"/>
  <path id="Path-3" data-name="Path" d="M4.05,13.446V6.912A9.191,9.191,0,0,1,4.131,5.67,3.09,3.09,0,0,1,4.469,4.6a1.932,1.932,0,0,1,.742-.756A2.5,2.5,0,0,1,6.48,3.564a1.929,1.929,0,0,1,1.2.324,1.934,1.934,0,0,1,.621.837,3.705,3.705,0,0,1,.243,1.121q.041.607.04,1.174h0v6.426h4.05V6.21a14.968,14.968,0,0,0-.189-2.457,5.3,5.3,0,0,0-.716-1.971A3.592,3.592,0,0,0,10.26.472,5.578,5.578,0,0,0,7.776,0a4.617,4.617,0,0,0-1.35.189A4.786,4.786,0,0,0,5.319.675a3.927,3.927,0,0,0-.837.675,3.282,3.282,0,0,0-.54.756H3.888V.324H0V13.446Z" transform="translate(72.468 7.29)"/>
  <path id="Path-4" data-name="Path" d="M6.723,20.736V10.854h3V7.614h-3V5.535a2.252,2.252,0,0,1,.486-1.715A2.185,2.185,0,0,1,8.667,3.4a3.059,3.059,0,0,1,.675.067,4.762,4.762,0,0,1,.648.2h0L10.179.243A8.218,8.218,0,0,0,9.018.054Q8.424,0,7.8,0A7.066,7.066,0,0,0,5.144.418,3.57,3.57,0,0,0,3.591,1.566a4.139,4.139,0,0,0-.729,1.688,10.527,10.527,0,0,0-.189,2.039h0V7.614H0v3.24H2.673v9.882Z" transform="translate(86.697 0)"/>
  <path id="Combined_Shape" data-name="Combined Shape" d="M7.29,13.77a8.309,8.309,0,0,1-2.848-.486,6.888,6.888,0,0,1-2.322-1.391A6.556,6.556,0,0,1,.567,9.72,6.906,6.906,0,0,1,0,6.885,6.906,6.906,0,0,1,.567,4.05,6.556,6.556,0,0,1,2.119,1.877,6.888,6.888,0,0,1,4.442.486,8.309,8.309,0,0,1,7.29,0a8.309,8.309,0,0,1,2.849.486A6.888,6.888,0,0,1,12.46,1.877,6.556,6.556,0,0,1,14.013,4.05a6.906,6.906,0,0,1,.567,2.835,6.906,6.906,0,0,1-.567,2.835,6.556,6.556,0,0,1-1.552,2.174,6.888,6.888,0,0,1-2.322,1.391A8.309,8.309,0,0,1,7.29,13.77Zm0-10.206a3.109,3.109,0,0,0-2.39.918,3.41,3.41,0,0,0-.85,2.4,3.41,3.41,0,0,0,.85,2.4,3.109,3.109,0,0,0,2.39.918,3.109,3.109,0,0,0,2.389-.918,3.41,3.41,0,0,0,.851-2.4,3.41,3.41,0,0,0-.851-2.4A3.109,3.109,0,0,0,7.29,3.564Z" transform="translate(97.47 7.29)"/>
</svg>
