<svg id="Group_41" data-name="Group 41" xmlns="http://www.w3.org/2000/svg" xmlns:xlink="http://www.w3.org/1999/xlink" width="84.56" height="15.96" viewBox="0 0 84.56 15.96">
  <defs>
    <clipPath id="clip-path">
      <path id="Clip_8" data-name="Clip 8" d="M0,15.96H84.56V0H0Z" fill="none"/>
    </clipPath>
  </defs>
  <path id="Fill_1" data-name="Fill 1" d="M1.815,0V8.2c0,1.663.832,3.818,3.365,3.818S8.545,9.865,8.545,8.2V0H10.36V8.485A5.04,5.04,0,0,1,5.18,13.72,5.039,5.039,0,0,1,0,8.485V0Z" transform="translate(19.88 1.12)" fill="#1d1d1b"/>
  <path id="Fill_3" data-name="Fill 3" d="M0,0H2.413L9.883,11.048h.038V0H11.76V13.44H9.423L1.877,2.392H1.839V13.44H0Z" transform="translate(32.2 1.12)" fill="#1d1d1b"/>
  <path id="Fill_5" data-name="Fill 5" d="M2.144,13.44H0L5.973,0H7.639l5.8,13.438H11.3L9.937,10.118H3.484L2.145,13.44ZM6.7,2.353,4.135,8.524H9.266L6.739,2.354H6.7Z" transform="translate(45.08 1.12)" fill="#dc062b"/>
  <path id="Clip_8-2" data-name="Clip 8" d="M0,15.96H84.56V0H0Z" fill="none"/>
  <g id="Group_41-2" data-name="Group 41" clip-path="url(#clip-path)">
    <path id="Fill_7" data-name="Fill 7" d="M0,13.44H1.96V0H0Z" transform="translate(59.64 1.12)" fill="#dc062b"/>
    <path id="Fill_9" data-name="Fill 9" d="M4.389,13.44H0V0H4.693a6.736,6.736,0,0,1,5.664,2.428,7.22,7.22,0,0,1,1.4,4.292,6.541,6.541,0,0,1-1.884,4.649A7.518,7.518,0,0,1,4.389,13.44ZM1.824,1.708V11.731h2.3c3.462,0,5.7-1.967,5.7-5.012a5.448,5.448,0,0,0-.993-3.146,4.984,4.984,0,0,0-4.27-1.865Z" transform="translate(63.28 1.12)" fill="#dc062b"/>
    <path id="Fill_10" data-name="Fill 10" d="M1.5,11.094a3.341,3.341,0,0,0,2.848,1.459,2.5,2.5,0,0,0,2.676-2.265C7.024,7.159.4,9.1.4,3.8.4,2.208,1.727,0,4.954,0A4.623,4.623,0,0,1,8.827,1.555L7.346,2.918a2.811,2.811,0,0,0-2.392-1.19c-2.012,0-2.619,1.229-2.619,2.073,0,3.436,6.625,1.382,6.625,6.276,0,2.63-2.088,4.2-4.67,4.2A5.135,5.135,0,0,1,0,12.4Z" transform="translate(75.6 0.84)" fill="#dc062b"/>
    <path id="Fill_11" data-name="Fill 11" d="M2.24,0a12.593,12.593,0,0,1-.971,1.171C.926,1.509.24,1.846,0,2.24A2.564,2.564,0,0,1,1.006.63,6.839,6.839,0,0,1,2.24,0" transform="translate(2.24 1.68)" fill="#1d1d1b"/>
    <path id="Fill_12" data-name="Fill 12" d="M.105,3.08A5.947,5.947,0,0,1,.072,1.389,2.608,2.608,0,0,1,.952,0,4.109,4.109,0,0,0,.591,1.467a4.413,4.413,0,0,1-.237.784,2.347,2.347,0,0,1,.893-1.075c.5-.336.768-.526.994-.705C1.8,1.871.794,1.714.105,3.08" transform="translate(1.4 2.52)" fill="#1d1d1b"/>
    <path id="Fill_13" data-name="Fill 13" d="M.595,3.92C.55,3.357.121,2.84.031,2.031A2.429,2.429,0,0,1,.471,0a4.772,4.772,0,0,0,.1,1.784,10.246,10.246,0,0,1,.012,1.2A1.937,1.937,0,0,1,1.17,1.608,2.775,2.775,0,0,0,1.96.6C1.971,2.124.741,2.1.595,3.92" transform="translate(0.56 3.92)" fill="#1d1d1b"/>
    <path id="Fill_14" data-name="Fill 14" d="M1.48,3.92C1.236,3.289.6,2.8.345,2.281A2.433,2.433,0,0,1,.218,0,3.694,3.694,0,0,0,.8,1.927a9.593,9.593,0,0,1,.456,1.229,2.74,2.74,0,0,1,.085-1.55C1.6.941,1.831.775,1.894.5c.329,1.572-.69,2.06-.413,3.422" transform="translate(0 5.88)" fill="#1d1d1b"/>
    <path id="Fill_15" data-name="Fill 15" d="M2.52,3.36C2.082,2.9,1.278,2.583.84,2A3.514,3.514,0,0,1,0,.023C.154.434.911,1.052,1.218,1.395a7.371,7.371,0,0,1,.757,1.2,2.759,2.759,0,0,1-.2-1.337A11.538,11.538,0,0,0,2.011,0a2.486,2.486,0,0,1,.343,1.44A2.668,2.668,0,0,0,2.52,3.36" transform="translate(0 8.4)" fill="#1d1d1b"/>
    <path id="Fill_16" data-name="Fill 16" d="M3.36,3.36c-.821-.442-1.653-.478-2.129-.86A2.846,2.846,0,0,1,0,.663,3.508,3.508,0,0,0,1.552,1.9a5.061,5.061,0,0,1,1.087.848,2.3,2.3,0,0,1-.654-1.36C1.885.57,2.04.453,1.9,0a2.59,2.59,0,0,1,.7,1.407A2.71,2.71,0,0,0,3.36,3.36" transform="translate(0.56 9.8)" fill="#1d1d1b"/>
    <path id="Fill_17" data-name="Fill 17" d="M3.92,2.52c-.826-.187-1.687-.022-2.338-.263A3.356,3.356,0,0,1,0,.942a3.9,3.9,0,0,0,1.989.8,4.822,4.822,0,0,1,1.489.5,3.664,3.664,0,0,1-.931-1.194C2.349.493,2.466.329,2.21,0A3.349,3.349,0,0,1,3.245,1.117c.325.581.36.932.675,1.4" transform="translate(1.4 11.48)" fill="#1d1d1b"/>
    <path id="Fill_18" data-name="Fill 18" d="M0,0A11.036,11.036,0,0,0,.978,1.171C1.307,1.509,2,1.846,2.24,2.24A2.566,2.566,0,0,0,1.227.63,6.417,6.417,0,0,0,0,0" transform="translate(13.44 1.68)" fill="#1d1d1b"/>
    <path id="Fill_19" data-name="Fill 19" d="M2.143,3.08a5.992,5.992,0,0,0,.024-1.691A2.7,2.7,0,0,0,1.293,0a3.882,3.882,0,0,1,.351,1.467,5.887,5.887,0,0,0,.238.784A2.252,2.252,0,0,0,1,1.176C.5.84.215.65,0,.471c.442,1.4,1.451,1.243,2.143,2.609" transform="translate(14.28 2.52)" fill="#1d1d1b"/>
    <path id="Fill_20" data-name="Fill 20" d="M1.371,3.92c.034-.563.476-1.08.554-1.889A2.377,2.377,0,0,0,1.484,0a4.549,4.549,0,0,1-.1,1.784c-.011.247-.033.8-.011,1.2A1.967,1.967,0,0,0,.793,1.608,2.518,2.518,0,0,1,0,.6C-.023,2.124,1.224,2.1,1.371,3.92" transform="translate(15.12 3.92)" fill="#1d1d1b"/>
    <path id="Fill_21" data-name="Fill 21" d="M.476,3.92C.72,3.289,1.368,2.8,1.623,2.281A2.452,2.452,0,0,0,1.74,0a3.591,3.591,0,0,1-.574,1.927A8.222,8.222,0,0,0,.711,3.156a2.847,2.847,0,0,0-.085-1.55C.36.941.136.775.062.5c-.318,1.572.7,2.06.414,3.422" transform="translate(15.68 5.88)" fill="#1d1d1b"/>
    <path id="Fill_22" data-name="Fill 22" d="M0,3.36C.437,2.9,1.23,2.583,1.68,2A3.608,3.608,0,0,0,2.52.023,7.21,7.21,0,0,1,1.361,1.36,6.365,6.365,0,0,0,.545,2.595a2.908,2.908,0,0,0,.2-1.337C.7.834.5.366.5,0A2.557,2.557,0,0,0,.166,1.44,2.74,2.74,0,0,1,0,3.36" transform="translate(15.12 8.4)" fill="#1d1d1b"/>
    <path id="Fill_23" data-name="Fill 23" d="M0,3.36c.818-.442,1.647-.478,2.123-.86A2.834,2.834,0,0,0,3.36.663,3.5,3.5,0,0,1,1.813,1.9a5.092,5.092,0,0,0-1.1.848,2.3,2.3,0,0,0,.653-1.36A13.607,13.607,0,0,1,1.459,0,2.492,2.492,0,0,0,.774,1.407,2.68,2.68,0,0,1,0,3.36" transform="translate(13.72 9.8)" fill="#1d1d1b"/>
    <path id="Fill_24" data-name="Fill 24" d="M0,2.52c.835-.187,1.681-.022,2.331-.263A3.393,3.393,0,0,0,3.92.942a3.952,3.952,0,0,1-1.994.8,4.617,4.617,0,0,0-1.473.5,3.49,3.49,0,0,0,.917-1.194C1.577.493,1.45.329,1.716,0A3.519,3.519,0,0,0,.673,1.117C.348,1.7.325,2.049,0,2.52" transform="translate(12.32 11.48)" fill="#1d1d1b"/>
    <path id="Fill_25" data-name="Fill 25" d="M.037.156.1.221.243.167.146.059Z" transform="translate(11.48 5.04)" fill="#1d1d1b"/>
    <path id="Fill_26" data-name="Fill 26" d="M0,.173.136,0H.182l.1.14L.159.164.235.247.121.28Z" transform="translate(11.48 5.32)" fill="#1d1d1b"/>
    <path id="Fill_27" data-name="Fill 27" d="M.054.14.226.215.118.065Z" transform="translate(11.2 5.6)" fill="#1d1d1b"/>
    <path id="Fill_28" data-name="Fill 28" d="M.118.24l-.1.107L.054.534.248.56.172.373.259.213.151,0Z" transform="translate(12.6 5.6)" fill="#1d1d1b"/>
    <path id="Fill_29" data-name="Fill 29" d="M.108.114.043.184V.271L.161.28l.076-.1V.07L.108,0Z" transform="translate(5.88 7.56)" fill="#1d1d1b"/>
    <path id="Fill_30" data-name="Fill 30" d="M.075.216.2.258.194.1.118.022Z" transform="translate(5.88 7.84)" fill="#1d1d1b"/>
    <path id="Fill_31" data-name="Fill 31" d="M1.064.374A4.789,4.789,0,0,0,0,2.8,2.886,2.886,0,0,1,2.215,1.444,2.952,2.952,0,0,1,4.48,2.794,4.244,4.244,0,0,0,3.372.374,1.845,1.845,0,0,0,2.215,0,1.81,1.81,0,0,0,1.064.374" transform="translate(6.72)" fill="#dc062b"/>
    <path id="Fill_32" data-name="Fill 32" d="M4.84,4.571A6.18,6.18,0,0,0,5.87,1.465,2.943,2.943,0,0,0,4.482,0a5.954,5.954,0,0,1-.768,2.439S2.741,4.354,2.412,4.9,0,9.193,0,9.193L.9,11.76C2.181,9.493,4.15,5.862,4.84,4.571" transform="translate(5.32 1.96)" fill="#dc062b"/>
    <path id="Fill_33" data-name="Fill 33" d="M2.732,11.2l0,0A6.332,6.332,0,0,1,4.282,0C4.253.058,4.225.117,4.2.181A6.014,6.014,0,0,0,1.97,1.593l.765.774.138-.13.178-.158.189-.158.2-.146.2-.124.122-.072c-.007.037-.014.072-.022.107l-.056.032-.2.123-.2.147-.178.146-.177.158-.138.131.876.886.085-.094.033-.03c0,.012.005.024.008.037s.007.036.012.054l-.08.091.135.134.014.043.044.129-.249-.25-.106.106-.111.135L3.34,3.8l-.1.146-.089.146-.089.157-.077.157-.078.158-.067.169L2.784,4.9l-.044.169-.045.18-.032.179-.022.181L2.628,5.8l-.007.123H3.2l.041-.067L3.4,5.722l.167-.146.1-.09.066-.113.139-.065.017-.059.045-.124.045-.113.044-.1L4.073,4.8l.057-.1L4.2,4.6l.06-.087a.426.426,0,0,0,.02.04c.006.011.012.022.017.034l-.037.055-.06.094-.056.1-.056.113-.044.1L4,5.161l-.023.077.29-.2.179-.116c.077.166.157.323.25.505l.069.136c-.082.144-.168.3-.259.463-.11.2-.223.4-.348.622l-.168-.024H3.939l.023.078L4,6.813l.036.077c-.01.019-.021.036-.031.053l-.015.025-.056-.122-.045-.112-.03-.112H3.762l.012-.18-.045-.168.058-.029V6.24l-.012-.123v-.1L3.766,6H3.551l-.089.168H3.34l.012.1-.112.1-.023.192L3.1,6.622l-.033.169.178.157-.022.259.1.045.022.237-.1.1.2.192.022.112-.432.759-.335.589L2.628,9.21l-.118.049.074.085.032.034-.041.072L2.528,9.4l-.156-.18-.066-.085-.324-.028-.055-.394L1.76,8.59l-.145.023-.289-.192.045-.179-.257-.259L.9,7.927.793,7.781.7,7.859l.078.226-.19-.078.023-.169L.6,7.646l.156-.18.233.044.234-.146.194.031-.039-.143L1.327,7l-.045-.248L1.249,6.51l-.022-.258V6H.14A6.152,6.152,0,0,0,1.9,10.309l.445-.45c-.038.066-.058.1-.058.1l.018.05-.349.353a6.132,6.132,0,0,0,.695.6l.084.234ZM1.65,7.375h0l.233.067L1.839,7.3l.067-.157.023-.2.289-.258.056-.1.156-.08.122.124.042-.013-.009-.055-.023-.18-.011-.192L2.54,6H1.3V6.24l.022.258.033.248.045.247.055.237.044.162.146-.016ZM2.618,6l.01.168.012.192.023.18.009.052.123.094.134-.1.1-.2.023-.257L3.151,6Zm.116-3.526h0l-.15.152-.156.18L2.283,3l-.133.2-.133.2-.122.2-.1.214-.1.225L1.6,4.271l-.077.237-.067.236L1.4,4.98l-.045.248-.033.247L1.3,5.734v.191H2.543L2.551,5.8l.011-.191.023-.192.033-.18.045-.18.044-.18.055-.18.067-.168.078-.158L2.984,4.2l.1-.158L3.172,3.9l.1-.146.112-.147.122-.135.105-.106Zm-.821-.83A6.172,6.172,0,0,0,.142,5.925H1.227V5.734l.022-.259.077-.507.056-.247.067-.236.078-.237.088-.236.1-.226.111-.212.122-.214.134-.2.133-.2.156-.192.156-.191.15-.151-.765-.774Z" transform="translate(2.52 1.12)" fill="#1d1d1b"/>
    <path id="Fill_34" data-name="Fill 34" d="M2.119,3.92A6.737,6.737,0,0,1,0,3.579l.038-.065.035-.059a6.591,6.591,0,0,0,2,.325V2.723H1.853L1.589,2.7l-.266-.032L1.07,2.624.816,2.569.628,2.517l.021-.036L.67,2.445l.17.046.254.056.241.043.265.033.254.011.219.009V1.418H1.922l-.2-.011-.2-.023-.212-.044L1.344,1.3l.017-.028.193.039.185.022.184.012h.149V1.131l-.16.057L1.67,1.144l-.242.032s.084-.149.189-.331c.145-.253.326-.568.414-.72h.041V.065L2.086.04,2.111,0l.022.038.02.035V.126l.035,0c.253.434.678,1.169,1.3,2.247l-.1.011L3.35,2.3l-.115-.021-.08-.122L2.8,1.944v-.2l.092-.033L2.9,1.539l-.2-.153-.188.022-.2.011H2.153V2.644l.23-.01.253-.011L2.9,2.59l.242-.043L3.4,2.491l.137-.04.041.073-.156.044-.253.055-.254.044L2.648,2.7l-.265.023h-.23V3.78a6.582,6.582,0,0,0,1.975-.313l.072.124A6.731,6.731,0,0,1,2.119,3.92Zm.23-2.885-.2.068v.238h.161L2.5,1.33l.137-.016-.057-.071-.23-.208Z" transform="translate(6.72 9.52)" fill="#1d1d1b"/>
    <path id="Fill_35" data-name="Fill 35" d="M2.06,11.2v0l.083-.233a6.04,6.04,0,0,0,.672-.584l-.339-.346L2.488,10l-.036-.064-.059-.1.479.488A6.183,6.183,0,0,0,4.62,6.008H3.537v.248l-.021.259-.034.247-.044.248-.056.248-.067.248-.077.236-.088.226-.1.225-.111.227-.122.2-.132.213-.133.192-.155.2-.156.18-.057.062L2.143,9.4l.043-.047.155-.18.144-.192.133-.192.133-.2.122-.214.1-.214.1-.226.088-.225.077-.226L3.3,7.236,3.361,7,3.4,6.751,3.438,6.5l.022-.258V6.008H2.23l-.011.179-.011.193-.023.18-.033.192-.044.181L2.065,7.1l-.056.181-.067.169-.077.169-.078.157-.1.158L1.6,8.093l-.1.146-.014.017-.046-.081.094-.128.088-.158.088-.147.077-.158.078-.169.067-.169.055-.169.045-.169.044-.18.033-.181.022-.18.012-.192.01-.168H1.133l.033.27.078.045-.011.18.044.079.066-.135.133.012.044.089.2.045.012.091-.3.158-.134.01.011.08-.166.078H1.022L.9,7.241C.692,6.869.487,6.5.305,6.176.2,5.982.094,5.8,0,5.631c.087-.186.173-.359.256-.526.1-.2.2-.4.278-.578L.58,4.6l.02.03.024.027.288-.011.122.113-.012.18.122.033v.113L1.067,5.2l.112.023.088-.136.2-.067.055.214-.077.112.077.057.222-.113.111-.236.132.023L1.8,5.421l-.144.193L1.488,5.59l-.077.157.044.056-.077.091-.112-.011-.048.044h.931L2.142,5.8l-.012-.19-.005-.047-.016.1-.156-.023c0-.007.056-.263.067-.349s.023-.147.023-.147l-.1-.4-.006-.02-.02-.05-.2-.118-.121-.227.065-.189-.142.032L1.4,3.956v-.2l0-.005-.161-.033L1.112,3.5l-.041-.049-.2.2c.018-.053.038-.113.053-.166l.1-.1L1,3.369.965,3.327c.03-.116.058-.249.081-.394l.133.165.05.085.211-.214-.084-.1-.121.057a.282.282,0,0,0-.1-.091l-.014,0c-.039,0-.065.067-.072.087.01-.063.02-.132.028-.211L1.142,2.6,1.148,2.3l-.053-.1c0-.01-.007-.236-.017-.354-.005-.075-.03-.24-.037-.275l.078.059.125-.082.288.191L1.422,1.6l-.144-.146.255.023.254.214-.11.056.233.383-.059.06L1.9,2.23l.016.015.14.064.009.024L2.8,1.585A5.661,5.661,0,0,0,.641.184,1.5,1.5,0,0,0,.547,0,6.212,6.212,0,0,1,3.562,2.258a6.374,6.374,0,0,1,1.2,3.737,6.351,6.351,0,0,1-2.7,5.2Zm.794-9.559-.761.774v0l.147.149.01.012.068.023.092.175.141.175.009.013.146.055.189.349.222.181.143.181-.179.127.068.154.088.238.077.236.067.237.056.247.044.249.034.258.021.259v.192H4.618A6.2,6.2,0,0,0,2.854,1.641ZM1.776,3.932h0l.266.136-.066.214.176.3-.088.147.009.183.018.076.094.192-.021.126.021.111.023.193.011.19.007.124H3.46V5.736l-.022-.259L3.4,5.229l-.044-.248L3.3,4.744l-.067-.237-.077-.236-.088-.226-.033-.075v.153l-.1-.011-.122.068L2.7,4.034l-.044-.168-.244-.293-.055.1L2.186,3.64l-.023-.068L2.009,3.55,1.8,3.481l-.089-.168L1.444,3.2l-.036-.087-.137.14L1.3,3.3l-.084.117.05.052.122.135.111.147.1.147.06.1.117-.065Z" transform="translate(10.36 1.12)" fill="#1d1d1b"/>
    <path id="Fill_36" data-name="Fill 36" d="M.545,0H.508l0,.189L.285.2.05.218,0,.225C0,.25,0,.28,0,.309l.026,0L.285.281.507.272v1.3H.355L.3,1.578l.027.079.029,0H.507v.475c.015.038.027.072.043.112l.039-.1V1.654H.751l.027,0L.8,1.578.751,1.572H.588V.272l.233.01.256.024.04,0c0-.03,0-.059,0-.084l-.03,0L.821.2.588.19.59,0,.545,0" transform="translate(8.4 1.68)" fill="#1d1d1b"/>
    <path id="Fill_37" data-name="Fill 37" d="M2.689,6.72,3.64,4.14S2.1,1.544,1.192,0C.894.532.5,1.2,0,2.077.682,3.27,1.491,4.667,2.689,6.72" transform="translate(8.96 7)" fill="#dc062b"/>
    <path id="Fill_38" data-name="Fill 38" d="M1.55,0A3.535,3.535,0,0,0,.019,1.486c-.1.632.184,1.492,1.02,2.994.209-.4.955-1.658,1.2-2.16A4.941,4.941,0,0,1,1.55,0" transform="translate(6.44 1.96)" fill="#dc062b"/>
    <path id="Fill_39" data-name="Fill 39" d="M.006,1.8c-.056.086.316.207.362.147C1.813-.176,3.969.872,4.737,1.1A2.247,2.247,0,0,0,7.56.239,2.553,2.553,0,0,1,5.335.421a6.44,6.44,0,0,0-1.7-.414A4.148,4.148,0,0,0,.006,1.8" transform="translate(7 14)" fill="#1d1d1b"/>
    <path id="Fill_40" data-name="Fill 40" d="M7.253,1.96c-.028,0-.047-.006-.054-.018A2.746,2.746,0,0,0,5.877.836,1.417,1.417,0,0,1,6.389.729c.052,0,.082.008.087.023A4.854,4.854,0,0,1,7.56,1.795v.037A.48.48,0,0,1,7.253,1.96ZM1.816,1.277A2.163,2.163,0,0,1,0,.242,2.284,2.284,0,0,0,1.223.6,3.409,3.409,0,0,0,2.207.426l.008,0c.092-.025.191-.06.306-.1A5.1,5.1,0,0,1,3.932.011C4.038,0,4.133,0,4.228,0A3.637,3.637,0,0,1,5.684.3a2.61,2.61,0,0,0-.622.326c-.076,0-.153-.008-.228-.008A4.88,4.88,0,0,0,3.141.994c-.121.044-.226.082-.316.11A3.4,3.4,0,0,1,1.816,1.277Z" transform="translate(3.08 14)" fill="#1d1d1b"/>
  </g>
</svg>
