<svg id="Group_3_Copy" data-name="Group 3 Copy" xmlns="http://www.w3.org/2000/svg" width="101.965" height="19.312" viewBox="0 0 101.965 19.312">
  <path id="AIDS" d="M50.467,18.28a9.363,9.363,0,0,1-3.145-.516,7.9,7.9,0,0,1-2.7-1.671l2.727-3a3.994,3.994,0,0,0,1.487,1.216,4.175,4.175,0,0,0,2.8.319,3.116,3.116,0,0,0,.86-.331,1.867,1.867,0,0,0,.615-.565,1.416,1.416,0,0,0,.233-.811,1.478,1.478,0,0,0-.6-1.241,5.559,5.559,0,0,0-1.511-.774c-.607-.213-1.268-.428-1.965-.639A8.843,8.843,0,0,1,47.3,9.41a4.746,4.746,0,0,1-1.511-1.426,4.093,4.093,0,0,1-.6-2.334,5.247,5.247,0,0,1,.553-2.457,5.344,5.344,0,0,1,1.474-1.769A6.45,6.45,0,0,1,49.336.356,8.741,8.741,0,0,1,51.818,0a9.81,9.81,0,0,1,2.849.418,6.6,6.6,0,0,1,2.482,1.4L54.521,4.693a2.74,2.74,0,0,0-1.265-.872,4.567,4.567,0,0,0-1.511-.283,4.03,4.03,0,0,0-.86.1,3.31,3.31,0,0,0-.835.308,1.821,1.821,0,0,0-.639.553,1.406,1.406,0,0,0-.246.835,1.393,1.393,0,0,0,.59,1.2,5.645,5.645,0,0,0,1.487.713c.584.192,1.232.39,1.929.589a7.937,7.937,0,0,1,1.929.835,4.577,4.577,0,0,1,1.487,1.45,4.434,4.434,0,0,1,.59,2.432,5.613,5.613,0,0,1-.541,2.531,5.151,5.151,0,0,1-1.462,1.794,6.244,6.244,0,0,1-2.138,1.057A9.43,9.43,0,0,1,50.467,18.28Zm-46.24-.441H0L7.519.442h3.169l7.567,17.395H13.931l-1.5-3.685H5.675L4.226,17.838ZM8.993,5.5,6.88,10.909H11.13ZM33.538,17.838H27.273V.442h5.749A16.474,16.474,0,0,1,36.99.909a9.14,9.14,0,0,1,3.28,1.511,7.434,7.434,0,0,1,2.223,2.715,9.137,9.137,0,0,1,.824,4.054,8.315,8.315,0,0,1-.8,3.722,8.049,8.049,0,0,1-2.15,2.7,9.557,9.557,0,0,1-3.12,1.659A12.2,12.2,0,0,1,33.538,17.838ZM31.106,3.981V14.3H33.1a10.779,10.779,0,0,0,2.47-.271,5.291,5.291,0,0,0,1.977-.9,4.321,4.321,0,0,0,1.315-1.646,5.869,5.869,0,0,0,.479-2.494,4.886,4.886,0,0,0-.479-2.224,4.469,4.469,0,0,0-1.29-1.56,5.667,5.667,0,0,0-1.9-.922,8.481,8.481,0,0,0-2.3-.307ZM23.783,17.838H19.951V.442h3.832v17.4Z" transform="translate(0 1.032)" fill="#e31837"/>
  <path id="Path" d="M2.138,4.275a2.059,2.059,0,0,0,1.511-.627,2.059,2.059,0,0,0,.627-1.511A2.059,2.059,0,0,0,3.649.627,2.059,2.059,0,0,0,2.138,0,2.059,2.059,0,0,0,.627.627,2.059,2.059,0,0,0,0,2.138,2.059,2.059,0,0,0,.627,3.649,2.059,2.059,0,0,0,2.138,4.275Z" transform="translate(59.312 1.032)" fill="#e31837"/>
  <path id="Path-2" data-name="Path" d="M3.685,11.941V0H0V11.941Z" transform="translate(59.607 6.929)"/>
  <path id="Path-3" data-name="Path" d="M3.686,12.236V6.29a8.363,8.363,0,0,1,.074-1.13,2.812,2.812,0,0,1,.307-.971A1.758,1.758,0,0,1,4.742,3.5,2.275,2.275,0,0,1,5.9,3.243a1.756,1.756,0,0,1,1.093.295,1.76,1.76,0,0,1,.565.762,3.372,3.372,0,0,1,.221,1.02q.037.553.037,1.069h0v5.848H11.5V5.651a13.621,13.621,0,0,0-.172-2.236,4.82,4.82,0,0,0-.651-1.794A3.269,3.269,0,0,0,9.337.43,5.076,5.076,0,0,0,7.076,0,4.2,4.2,0,0,0,5.848.172,4.355,4.355,0,0,0,4.84.614a3.574,3.574,0,0,0-.762.614,2.987,2.987,0,0,0-.491.688H3.538V.295H0V12.236Z" transform="translate(65.946 6.634)"/>
  <path id="Path-4" data-name="Path" d="M6.118,18.87V9.877H8.845V6.929H6.118V5.037a2.049,2.049,0,0,1,.442-1.56A1.988,1.988,0,0,1,7.887,3.1a2.784,2.784,0,0,1,.614.061,4.334,4.334,0,0,1,.59.184h0L9.263.221A7.479,7.479,0,0,0,8.206.049Q7.666,0,7.1,0a6.43,6.43,0,0,0-2.42.381A3.249,3.249,0,0,0,3.268,1.425,3.766,3.766,0,0,0,2.6,2.961a9.58,9.58,0,0,0-.172,1.855h0V6.929H0V9.877H2.432V18.87Z" transform="translate(78.894 0)"/>
  <path id="Combined_Shape" data-name="Combined Shape" d="M6.634,12.531a7.574,7.574,0,0,1-2.592-.442,6.28,6.28,0,0,1-2.113-1.265A5.973,5.973,0,0,1,.516,8.845,6.286,6.286,0,0,1,0,6.265,6.284,6.284,0,0,1,.516,3.686,5.973,5.973,0,0,1,1.929,1.707,6.28,6.28,0,0,1,4.042.442,7.574,7.574,0,0,1,6.634,0,7.574,7.574,0,0,1,9.226.442a6.28,6.28,0,0,1,2.113,1.265,5.988,5.988,0,0,1,1.413,1.978,6.284,6.284,0,0,1,.516,2.579,6.286,6.286,0,0,1-.516,2.58,5.988,5.988,0,0,1-1.413,1.978,6.28,6.28,0,0,1-2.113,1.265A7.574,7.574,0,0,1,6.634,12.531Zm0-9.287a2.828,2.828,0,0,0-2.174.835,3.1,3.1,0,0,0-.774,2.187A3.1,3.1,0,0,0,4.46,8.452a2.828,2.828,0,0,0,2.174.835,2.828,2.828,0,0,0,2.174-.835,3.1,3.1,0,0,0,.774-2.186,3.1,3.1,0,0,0-.774-2.187A2.828,2.828,0,0,0,6.634,3.244Z" transform="translate(88.698 6.634)"/>
</svg>
