<svg xmlns="http://www.w3.org/2000/svg" width="19.737" height="15.683" viewBox="0 0 19.737 15.683">
  <path id="gamburger" d="M19.472,15.683H.265A.264.264,0,0,1,0,15.42V14.362A.265.265,0,0,1,.265,14.1H19.472a.265.265,0,0,1,.265.265V15.42A.264.264,0,0,1,19.472,15.683Zm0-7.049H.265A.264.264,0,0,1,0,8.371V7.313a.265.265,0,0,1,.265-.265H19.472a.265.265,0,0,1,.265.265V8.371A.264.264,0,0,1,19.472,8.635Zm0-7.049H.265A.264.264,0,0,1,0,1.322V.265A.265.265,0,0,1,.265,0H19.472a.265.265,0,0,1,.265.265V1.322A.264.264,0,0,1,19.472,1.586Z" transform="translate(0 0)"/>
</svg>
